<?xml version="1.0" encoding="utf-8"?>
<!-- Generator: Adobe Illustrator 24.0.1, SVG Export Plug-In . SVG Version: 6.00 Build 0)  -->
<svg version="1.1" id="图层_1" xmlns="http://www.w3.org/2000/svg" xmlns:xlink="http://www.w3.org/1999/xlink" x="0px" y="0px"
	 viewBox="0 0 2000 2000" style="enable-background:new 0 0 2000 2000;" xml:space="preserve">
<style type="text/css">
	.st0{fill:#CAFF35;}
	.st1{fill:#FFFFFF;}
</style>
<defs>
	<clipPath id="icon-rounded">
		<rect x="100" y="100" width="1800" height="1800" rx="440" ry="440"/>
	</clipPath>
</defs>
<g clip-path="url(#icon-rounded)">
<rect x="100" y="100" width="1800" height="1800" rx="440" ry="440"/>
<g>
	<path class="st0" d="M1535.66,1331.96c0-3.51-0.09-7-0.26-10.46c-5.45-108.01-94.74-193.91-204.11-193.91
		c-64,0-121.1,29.44-158.58,75.49l0-0.02l-64.41,68.2c-13.12,13.89-28.86,25.03-46.31,32.79l-51.83,15.63
		c-12.16,3.67-12.16,20.89,0,24.56l51.83,15.63c17.46,7.76,33.2,18.9,46.31,32.79l64.41,68.2l0-0.02
		c37.47,46.05,94.58,75.49,158.58,75.49c109.36,0,198.66-85.9,204.11-193.91C1535.57,1338.95,1535.66,1335.47,1535.66,1331.96z"/>
	<path class="st1" d="M1188.66,524.21c-42.87,42.87-62.54,100.12-59.11,156.22l-0.06-0.05c0,0,3.89,142.71-70.51,222
		c-22.54,24.02-35.95,38.01-43.72,45.88c-1.41,1.41-2.86,2.86-4.32,4.31c-0.15,0.15-0.32,0.31-0.46,0.45l0,0
		c-107.97,107.86-85.18,84.49-108.77,106.62c-79.29,74.4-222,70.51-222,70.51l0.05,0.06c-56.1-3.43-113.35,16.24-156.22,59.11
		c-79.38,79.38-79.38,208.08,0,287.46s208.08,79.38,287.46,0c42.87-42.87,62.54-100.12,59.11-156.22l0.07,0.06
		c0,0-3.89-142.71,70.51-222c22.13-23.58-1.25-0.8,106.62-108.77l0,0c0.14-0.14,0.31-0.31,0.45-0.46c1.46-1.46,2.91-2.91,4.31-4.32
		c7.87-7.77,21.86-21.18,45.88-43.72c79.29-74.4,222-70.51,222-70.51l-0.06-0.07c56.1,3.43,113.35-16.24,156.22-59.11
		c79.38-79.38,79.38-208.08,0-287.46S1268.04,444.83,1188.66,524.21z"/>
	<path class="st0" d="M464.01,669.04c0,3.51,0.09,7,0.26,10.46c5.45,108.01,94.74,193.91,204.11,193.91
		c64,0,121.1-29.44,158.58-75.49l0,0.02l64.41-68.2c13.12-13.89,28.86-25.03,46.32-32.79l51.83-15.63
		c12.16-3.67,12.16-20.89,0-24.56l-51.83-15.63c-17.46-7.76-33.2-18.9-46.32-32.79l-64.41-68.2l0,0.02
		c-37.47-46.05-94.58-75.49-158.58-75.49c-109.36,0-198.66,85.9-204.11,193.91C464.1,662.05,464.01,665.53,464.01,669.04z"/>
</g>
</g>
</svg>
